<?xml version="1.0" encoding="utf-8"?>
<svg width="15px" height="15px" viewBox="0 0 15 15" version="1.1" xmlns:xlink="http://www.w3.org/1999/xlink" xmlns="http://www.w3.org/2000/svg">
  <desc>Created with Lunacy</desc>
  <path d="M14.7889 2.37016L13.7666 3.39182C13.6476 3.51259 13.4523 3.51259 13.3315 3.39182L11.6021 1.66241C11.4806 1.54164 11.4806 1.34634 11.6021 1.22557L12.6238 0.203187C12.8947 -0.067729 13.3329 -0.067729 13.6042 0.203187L14.7889 1.38898C15.0588 1.66026 15.0588 2.09852 14.7889 2.37016L14.7889 2.37016ZM12.961 4.11535L7.30468 9.77556C7.18535 9.97767 6.99041 9.97767 6.86964 9.85798L5.13987 8.1282C5.01946 8.00672 5.01946 7.81213 5.13987 7.69137L10.7961 2.03188C10.9169 1.91219 11.1108 1.91219 11.2315 2.03188L12.961 3.76237C13.0821 3.88278 13.0821 4.07844 12.961 4.11535L12.961 4.11535ZM6.34467 10.5743L3.89066 11.4154L3.84515 11.4312C3.77026 11.4484 3.68819 11.4276 3.62942 11.3692C3.57101 11.3104 3.55058 11.2287 3.56886 11.1534L3.58391 11.1083L4.42461 8.65283L4.44002 8.60732C4.45005 8.58331 4.46654 8.56038 4.48553 8.54067C4.57548 8.45072 4.72276 8.45072 4.81307 8.54067L6.45684 10.1852C6.54643 10.2762 6.54643 10.4217 6.45684 10.512C6.43641 10.5328 6.41491 10.5478 6.39054 10.5582L6.34467 10.5743L6.34467 10.5743ZM8.01245 2.59305L1.55096 2.59305L1.55096 13.4487L12.4066 13.4487L12.4066 6.98719C12.4066 6.5586 12.7542 6.21171 13.1821 6.21171C13.6099 6.21171 13.9575 6.5586 13.9575 6.98719L13.9575 14.2245C13.9575 14.3317 13.9357 14.4334 13.8963 14.5266C13.7787 14.8043 13.5028 15 13.1821 15L13.1821 15L0.775479 15C0.347245 15 0 14.6524 0 14.2245L0 1.81793C0 1.3897 0.347245 1.04245 0.775479 1.04245L8.01245 1.04245C8.44032 1.04245 8.78793 1.3897 8.78793 1.81793C8.78793 2.2458 8.44068 2.59305 8.01245 2.59305L8.01245 2.59305Z" id="Shape" fill="#FFFFFF" fill-rule="evenodd" stroke="none" />
</svg>