<?xml version="1.0" encoding="utf-8"?>
<svg width="15px" height="15px" viewBox="0 0 15 15" version="1.1" xmlns:xlink="http://www.w3.org/1999/xlink" xmlns="http://www.w3.org/2000/svg">
  <desc>Created with Lunacy</desc>
  <path d="M14.7478 5.56435C14.9123 6.18185 15 6.83069 15 7.5C15 11.6421 11.6421 15 7.5 15C3.35786 15 0 11.6421 0 7.5C0 3.35786 3.35786 0 7.5 0C8.16982 0 8.81913 0.0878069 9.43705 0.252538C9.66189 0.312478 10.0107 0.633727 9.80354 1.06356C9.59638 1.49339 9.17141 1.38955 9.17141 1.38955C8.63895 1.24424 8.07853 1.16667 7.5 1.16667C4.0022 1.16667 1.16667 4.0022 1.16667 7.5C1.16667 10.9978 4.0022 13.8333 7.5 13.8333C10.9978 13.8333 13.8333 10.9978 13.8333 7.5C13.8333 6.93613 13.7596 6.38946 13.6214 5.86912C13.5755 5.69742 13.5975 5.29263 14.0138 5.1619C14.43 5.03116 14.7054 5.38808 14.7478 5.56435ZM11.7126 1.30613C11.8682 1.15054 12.1213 1.15135 12.2781 1.30824L13.6915 2.72156C13.8482 2.87831 13.8495 3.13118 13.6936 3.28709L7.18212 9.79855C7.02654 9.95413 6.77348 9.95333 6.61659 9.79643L5.20327 8.38312C5.04652 8.22636 5.04525 7.97349 5.20115 7.81758L11.7126 1.30613L11.7126 1.30613L11.7126 1.30613ZM12.842 0.176738C13.0772 -0.0584256 13.4578 -0.0591203 13.6928 0.175903L14.8238 1.30693C15.0585 1.54164 15.0578 1.92288 14.823 2.1577L14.5421 2.43855C14.3854 2.59531 14.1314 2.59545 13.9745 2.43856L12.5612 1.02524C12.4044 0.868491 12.4028 0.615974 12.5612 0.457586L12.842 0.176738L12.842 0.176738L12.842 0.176738ZM3.57455 11.4256C3.96422 11.8153 6.26322 10.55 6.26322 10.55C6.45882 10.4468 6.49046 10.2363 6.33357 10.0794L4.92025 8.6661C4.7635 8.50935 4.55125 8.5416 4.44976 8.73652C4.44976 8.73652 3.18487 11.0359 3.57455 11.4256L3.57455 11.4256L3.57455 11.4256Z" id="Shape" fill="#8E8E93" fill-rule="evenodd" stroke="none" />
</svg>