<?xml version="1.0" encoding="utf-8"?>
<svg width="15px" height="15px" viewBox="0 0 15 15" version="1.1" xmlns:xlink="http://www.w3.org/1999/xlink" xmlns="http://www.w3.org/2000/svg">
  <desc>Created with Lunacy</desc>
  <path d="M4.51807 0C2.02444 0 0 2.02444 0 4.51807L0 10.3012C0 12.7948 2.02444 14.8193 4.51807 14.8193L10.3012 14.8193C12.7948 14.8193 14.8193 12.7948 14.8193 10.3012L14.8193 4.51807C14.8193 2.02444 12.7948 2.05458e-14 10.3012 2.05458e-14L4.51807 2.05458e-14L4.51807 0ZM4.51809 1.08434L10.3012 1.08434C12.2129 1.08434 13.735 2.6064 13.735 4.51807L13.735 10.3012C13.735 12.2129 12.2129 13.7349 10.3012 13.7349L4.51809 13.7349C2.60642 13.7349 1.08435 12.2129 1.08435 10.3012L1.08435 4.51807C1.08435 2.6064 2.60642 1.08434 4.51809 1.08434L4.51809 1.08434ZM3.61443 6.14458C2.91577 6.14458 2.34937 6.71096 2.34937 7.40964C2.34937 8.10832 2.91577 8.6747 3.61443 8.6747C4.31312 8.6747 4.87949 8.10832 4.87949 7.40964C4.87949 6.71096 4.31312 6.14458 3.61443 6.14458L3.61443 6.14458ZM7.40959 6.14458C6.71093 6.14458 6.14453 6.71096 6.14453 7.40964C6.14453 8.10832 6.71093 8.6747 7.40959 8.6747C8.10828 8.6747 8.67465 8.10832 8.67465 7.40964C8.67465 6.71096 8.10828 6.14458 7.40959 6.14458L7.40959 6.14458ZM11.2049 6.14458C10.5062 6.14458 9.93982 6.71096 9.93982 7.40964C9.93982 8.10832 10.5062 8.6747 11.2049 8.6747C11.9036 8.6747 12.4699 8.10832 12.4699 7.40964C12.4699 6.71096 11.9036 6.14458 11.2049 6.14458L11.2049 6.14458Z" id="Shape" fill="#8E8E93" fill-rule="evenodd" stroke="none" />
</svg>