<?xml version="1.0" encoding="utf-8"?>
<svg width="16px" height="14px" viewBox="0 0 16 14" version="1.1" xmlns:xlink="http://www.w3.org/1999/xlink" xmlns="http://www.w3.org/2000/svg">
  <desc>Created with Lunacy</desc>
  <g id="sent">
    <path d="M14.8143 0.0996254L0.591899 5.60461C-0.20691 5.91386 -0.195719 6.38867 0.61659 6.66009L4.19444 7.85484L5.58423 12.1914C5.7505 12.7385 6.21678 12.8553 6.62054 12.4509L8.52617 10.5419C8.53434 10.5337 8.5418 10.5257 8.54962 10.5177L12.0395 13.1564C12.7231 13.6733 13.4233 13.4085 13.5956 12.5681L15.9535 1.06541C16.1258 0.225033 15.6131 -0.209454 14.8143 0.0996254L14.8143 0.0996254ZM12.5039 3.1771L6.58571 8.72773L6.58553 8.72791L6.585 8.72844C6.48109 8.82631 6.39547 9.01443 6.38321 9.15671L6.38321 9.15671L6.22565 10.9794C6.14607 11.8862 6.00344 11.5705 5.82918 11.0259L4.69678 7.53831L12.1147 2.7872C13.262 2.07223 13.262 2.4838 12.5039 3.1771L12.5039 3.1771Z" id="Shape" fill="#8E8E93" fill-rule="evenodd" stroke="none" />
  </g>
</svg>