<?xml version="1.0" encoding="utf-8"?>
<svg width="13px" height="15px" viewBox="0 0 13 15" version="1.1" xmlns:xlink="http://www.w3.org/1999/xlink" xmlns="http://www.w3.org/2000/svg">
  <desc>Created with Lunacy</desc>
  <path d="M7.54112 0.995948L11.2086 0.995948C11.7246 0.995948 12.143 1.4131 12.1433 1.92724L12.1433 3.45802L0 3.45802L0 1.92724C0 1.4131 0.418707 0.995948 0.934138 0.995948L4.60397 0.995948L4.60397 0.465259C4.60397 0.465259 4.58793 0 5.05448 0L7.0575 0C7.52457 0 7.54112 0.465259 7.54112 0.465259L7.54112 0.995948ZM0.933838 13.9684C0.933838 14.4825 1.35203 14.8991 1.86772 14.8991L10.275 14.8991C10.7927 14.8991 11.2106 14.4828 11.2106 13.9684L11.2106 4.38853L0.933838 4.38853L0.933838 13.9684ZM2.32863 5.31155L3.77561 5.31155L3.77561 13.0585C3.77561 13.4584 3.45104 13.7816 3.05199 13.7816C2.65294 13.7816 2.32863 13.4584 2.32863 13.0585L2.32863 5.31155ZM6.79758 5.31155L5.34827 5.31155L5.34827 13.0585C5.34827 13.4584 5.67258 13.7816 6.07292 13.7816C6.47327 13.7816 6.79758 13.4584 6.79758 13.0585L6.79758 5.31155ZM8.34694 5.31155L9.79496 5.31155L9.79496 13.0585C9.79496 13.4584 9.47013 13.7816 9.07211 13.7816C8.67151 13.7816 8.34694 13.4584 8.34694 13.0585L8.34694 5.31155Z" id="Combined-Shape" fill="#8E8E93" fill-rule="evenodd" stroke="none" />
</svg>